{"asset":{"version":"2.0","generator":"THREE.GLTFExporter r172"},"scenes":[{"nodes":[0]}],"scene":0,"nodes":[{"mesh":0}],"bufferViews":[{"buffer":0,"byteOffset":0,"byteLength":34020,"target":34962,"byteStride":12},{"buffer":0,"byteOffset":34020,"byteLength":5672,"target":34963}],"buffers":[{"byteLength":39692,"uri":"data:application/octet-stream;base64,"}],"accessors":[{"bufferView":0,"componentType":5126,"count":2835,"max":[47.5,1.2000000476837158,47.5],"min":[-47.5,1.2000000476837158,-47.5],"type":"VEC3"},{"bufferView":1,"componentType":5123,"count":2835,"max":[2834],"min":[0],"type":"SCALAR"}],"materials":[{"pbrMetallicRoughness":{"metallicFactor":0,"roughnessFactor":1}}],"meshes":[{"primitives":[{"mode":4,"attributes":{"POSITION":0},"indices":1,"material":0}]}]}